<svg width="200" height="32" viewBox="0 0 200 32" fill="none" xmlns="http://www.w3.org/2000/svg">
<path d="M104.192 27.0876C101.307 29.9726 97.5164 31.5 93.5 31.5C89.427 31.5 85.6368 29.916 82.8084 27.0876L80.1496 24.4288L85.6368 18.9416L88.2956 21.6004C91.1806 24.4854 95.8759 24.4854 98.7609 21.6004C101.646 18.7153 101.646 14.0201 98.7609 11.135C95.8759 8.25001 91.1806 8.25001 88.2956 11.135L72.343 27.0876C69.458 29.9726 65.6679 31.5 61.6514 31.5C57.5785 31.5 53.7883 29.916 50.9598 27.0876C48.0748 24.2025 46.5474 20.4124 46.5474 16.396C46.5474 12.3796 48.1314 8.53285 50.9598 5.70438C53.8449 2.81935 57.635 1.29198 61.6514 1.29198C65.7244 1.29198 69.5146 2.87592 72.343 5.70438L75.0018 8.36315L69.5146 13.8504L66.8558 11.1916C63.9708 8.30658 59.2755 8.30658 56.3905 11.1916C53.5055 14.0767 53.5055 18.7719 56.3905 21.6569C57.8047 23.0712 59.7281 23.8066 61.5949 23.8066C63.4617 23.8066 65.385 23.0712 66.7992 21.6569L82.7518 5.70438C85.6368 2.81935 89.427 1.29198 93.4434 1.29198C97.4598 1.29198 101.307 2.87592 104.135 5.70438C107.02 8.58942 108.547 12.3796 108.547 16.396C108.547 20.4124 107.02 24.2025 104.192 27.0876Z" fill="white"/>
<path d="M131.119 1.8011V17.4142L118.221 1.8011H111.376V31.0474H119.522V15.4909L132.42 31.0474H139.265V1.8011H131.119Z" fill="white"/>
<path d="M151.936 24.6551V19.3376H164.947V13.115H151.936V8.19343H166.701V1.8011H143.734V31.0474H167.266V24.6551H151.936Z" fill="white"/>
<path d="M199.624 31.0474L188.763 15.9434L198.945 1.8011H190.007L184.237 10.2299L178.354 1.8011H169.02L179.259 16.2829L168.567 31.0474H178.015L184.011 21.9963L190.064 31.0474H199.624Z" fill="white"/>
<path d="M17.3577 14.5292L17.3011 0.5H13.3978L8.92883 7.96716L4.34672 0.5H0.5V14.5292H4.79927V8.36315L7.85401 13.2847H9.94708L13.0018 8.13686L13.0584 14.5292H17.3577ZM23.0712 10.9653V9.09854H29.0109V5.70438H23.0712V4.06388H29.8595V0.5H18.4325V14.5292H30.1423V10.9653H23.0712ZM30.708 14.5292H37.6095C42.3047 14.5292 45.5292 11.8704 45.5292 7.51461C45.5292 3.15877 42.3047 0.5 37.6095 0.5H30.708V14.5292ZM35.4033 10.8522V4.17701H37.3832C39.3631 4.17701 40.7208 5.36498 40.7208 7.51461C40.7208 9.66424 39.3631 10.8522 37.3832 10.8522H35.4033Z" fill="white"/>
</svg>
