<svg width="192" height="31" viewBox="0 0 192 31" fill="none" xmlns="http://www.w3.org/2000/svg">
<path d="M99.6648 26.5876C96.8918 29.4726 93.2489 31 89.3884 31C85.4736 31 81.8307 29.416 79.112 26.5876L76.5565 23.9288L81.8307 18.4416L84.3862 21.1004C87.1592 23.9854 91.6721 23.9854 94.4451 21.1004C97.2181 18.2153 97.2181 13.5201 94.4451 10.635C91.6721 7.75001 87.1592 7.75001 84.3862 10.635L69.0531 26.5876C66.2801 29.4726 62.6372 31 58.7767 31C54.8619 31 51.2189 29.416 48.5003 26.5876C45.7273 23.7025 44.2592 19.9124 44.2592 15.896C44.2592 11.8796 45.7817 8.03285 48.5003 5.20438C51.2733 2.31935 54.9163 0.791984 58.7767 0.791984C62.6915 0.791984 66.3345 2.37592 69.0531 5.20438L71.6086 7.86315L66.3345 13.3504L63.779 10.6916C61.006 7.80658 56.4931 7.80658 53.7201 10.6916C50.9471 13.5767 50.9471 18.2719 53.7201 21.1569C55.0794 22.5712 56.928 23.3066 58.7223 23.3066C60.5166 23.3066 62.3653 22.5712 63.7246 21.1569L79.0577 5.20438C81.8307 2.31935 85.4736 0.791984 89.3341 0.791984C93.1945 0.791984 96.8919 2.37592 99.6105 5.20438C102.383 8.08942 103.852 11.8796 103.852 15.896C103.852 19.9124 102.383 23.7025 99.6648 26.5876Z" fill="#29ADE3"/>
<path d="M125.546 1.3011V16.9142L113.149 1.3011H106.57V30.5474H114.4V14.9909L126.797 30.5474H133.376V1.3011H125.546Z" fill="#29ADE3"/>
<path d="M145.555 24.1551V18.8376H158.061V12.615H145.555V7.69343H159.746V1.3011H137.671V30.5474H160.29V24.1551H145.555Z" fill="#29ADE3"/>
<path d="M191.391 30.5474L180.952 15.4434L190.739 1.3011H182.148L176.602 9.72993L170.947 1.3011H161.976L171.817 15.7829L161.541 30.5474H170.621L176.384 21.4963L182.202 30.5474H191.391Z" fill="#29ADE3"/>
<path d="M16.203 14.0292L16.1486 0H12.3969L8.1015 7.46716L3.69733 0H0V14.0292H4.13232V7.86315L7.06843 12.7847H9.08021L12.0163 7.63686L12.0707 14.0292H16.203ZM21.6946 10.4653V8.59854H27.4038V5.20438H21.6946V3.56388H28.2193V0H17.2361V14.0292H28.4912V10.4653H21.6946ZM29.0349 14.0292H35.6684C40.1813 14.0292 43.2805 11.3704 43.2805 7.01461C43.2805 2.65877 40.1813 0 35.6684 0H29.0349V14.0292ZM33.5479 10.3522V3.67701H35.4509C37.3539 3.67701 38.6589 4.86498 38.6589 7.01461C38.6589 9.16424 37.3539 10.3522 35.4509 10.3522H33.5479Z" fill="#96989A"/>
</svg>
